<svg xmlns="http://www.w3.org/2000/svg" width="646" height="646"><style>.st0{fill:#273942}.st3{fill:#52677a}.st5{fill:#ce521f}.st6{fill:#ebebeb}.st7{fill:#8e96a3}.st10{fill:#68b7ce}.st11{fill:#e8e8e8}.st12{fill:#fff}.st13{fill:#828282}.st14{fill:#ccc}.st16{fill:#c6c6c6}.st18,.st36{fill:#1d1e1c}.st36{opacity:.2}.st56{fill:#070707}</style><path class="st0" d="M77.9 459.8s-1.2 11.5 33.3 11.5 438.5.7 438.5.7 23.1.7 29.3-11.3l-501.1-.9z"/><path d="M579 457.5c-2 4.3-7.8 6.5-13.8 6.5l-473.7-.7c-6 0-12.1-3-13.7-6.7l33.2-66.2c3.8-5.8 3.3-8.5 10.2-8.5h416.2c3.3 0 7.6 2.4 10.5 8.5l31.1 67.1z" style="fill:#b7cdd8"/><path d="M335.3 140.7c0 1.6-1.3 2.9-2.8 2.9h-5.7c-1.6 0-2.8-1.3-2.8-2.9 0-1.6 1.3-2.9 2.8-2.9h5.7c1.6 0 2.8 1.3 2.8 2.9z" style="fill:#e2e2f7"/><path class="st3" d="m255.9 435.6 3.3-10.8h-26.7l-4.6 10.8zM262 421.1l3-9.3h-25.8l-4.1 9.3zM265.8 408.6l3-9.4h-24.9l-4 9.4zM228.4 408.6l3.8-9.4h-23.1l-4.8 9.4zM216.1 435.6l4.4-10.8h-24.8l-5.6 10.8zM223 421.1l3.9-9.3h-24l-4.8 9.3zM298.8 408.6l2.2-9.4h-21.1l-3.1 9.4zM193.2 408.6l4.7-9.4h-24.8l-5.6 9.4zM184.5 424.8h-25.7l-7.4 10.8h27.8zM186.3 421.3l5.3-9.3h-25.1l-5.8 9.3zM297 421.1l2-9.3h-24.1l-2.2 9.3zM155.3 412h-22.4l-8.3 8.6h24.8zM146 424.5h-23.3l-9.3 10.4H139zM157.9 408l5.3-8.8h-21.5l-6.3 8.8zM474.1 435.6h27.8l-7.2-10.8h-26.6zM460.7 411.8l5.2 9.3h26.8l-6.4-9.3zM485.6 408.6l-6.2-9.4h-24.7l5.2 9.4zM413.1 421.1l-4.6-9.3h-22.8l3.7 9.3zM419.9 435.6l-6-10.8h-23.5l4.2 10.8zM445.7 408.6l-4-9.4h-24.1l5.2 9.4zM453.7 421.1l-5.5-9.3h-24.3l4.5 9.3zM434.3 435.6h26.3l-6.3-10.8h-25.1zM408.1 408.6l-5.9-9.4h-23.4l4.9 9.4zM509.3 424.8l6.9 10.8h29.3l-8.2-10.8zM526.7 408.6l-7.2-9.4h-26l6 9.4zM507.2 421.1h28.1l-7.2-9.3h-27zM372.5 408.6l-3.9-9.4h-24.7l2.8 9.4zM376.1 421.1l-3.9-9.3h-25.7l2.9 9.3zM334.9 408.6l-1-9.4H311l-.9 9.4zM336 421.1l-1.6-9.3h-24.3l-1.2 9.3zM376.9 424.8H270.6l-2.5 10.8H380.4z"/><path class="st0" d="m269.9 453.7-1.4.7c-4.2 3.9-.5 5 10.4 5h86.6c10.9 0 14.9-1.5 10.2-5l-1.4-.7H269.9z"/><path d="M364.5 446.7c-2.9-1.7-4.9-2.6-11.1-2.6l-63-.1c-6.2 0-7.8 1-10.7 2.6l-9.8 6.9h104.3l-9.7-6.8z" style="fill:#354f5c"/><path class="st5" d="M122.9 274.2c-.8-.3-1.2-1.2-.9-2l1.3-3.4 2.9 1.1-1.3 3.4c-.3.7-1.2 1.2-2 .9zM139.2 280.2c-.8-.3-1.2-1.2-.9-2 0 0 1.2-3.2 1.3-3.4.1-.2 2.9 1.1 2.9 1.1l-1.3 3.4c-.3.7-1.2 1.2-2 .9z"/><path class="st6" d="M122.6 273.5c-.8-.3-1.2-1.2-.9-2l1.4-3.8c.3-.8 1.2-1.2 2-.9.8.3 1.2 1.2.9 2l-1.4 3.8c-.3.8-1.2 1.2-2 .9zM138.8 279.5c-.8-.3-1.2-1.2-.9-2l1.4-3.8c.3-.8 1.2-1.2 2-.9.8.3 1.2 1.2.9 2l-1.4 3.8c-.3.7-1.2 1.2-2 .9z"/><path class="st7" d="m118.65 309.45 9.571 3.525-2.281 6.194-9.572-3.526zM123.064 298.464l9.571 3.526-2.28 6.193-9.572-3.525z"/><path style="fill:#3d4d5c" d="M114.2 102.3h424.9v268.5H114.2z"/><path style="fill:#3e9697" d="M130.5 117h392.1v232.6H130.5z"/><path class="st3" d="M142.9 370.9H206V382h-63.1zM446.5 370.7h63.1V382h-63.1z"/><path class="st10" d="M128.3 116.9h394.2v25.3H128.3z"/><path class="st11" d="M128.3 142.2h394.2v210.4H128.3z"/><path class="st12" d="M138.7 124.9h94.1v9.6h-94.1zM128.3 142.2h86.5v210.4h-86.5z"/><path class="st13" d="M132.3 152.8h12.6v7h-12.6zM149.5 152.8h57.2v7h-57.2zM132.3 169.7h12.6v7h-12.6zM149.5 169.7h50.6v7h-50.6zM132.3 187.6h12.6v7h-12.6zM149.5 187.6h53.2v7h-53.2zM132.3 205.5h12.6v7h-12.6zM149.5 205.5h50.6v7h-50.6zM132.3 222.6h12.6v7h-12.6zM149.5 222.6h38.7v7h-38.7zM132.3 239.5h12.6v7h-12.6zM149.5 239.5h53.2v7h-53.2z"/><path class="st12" d="M224.5 153.4h288.9v165.9H224.5z"/><path class="st14" d="M513.7 319.5H224.2V153.2h289.4v166.3zm-289-.4h288.4V153.5H224.7v165.6z"/><path class="st11" d="M224.7 319.7h288.9v25.1H224.7z"/><path class="st14" d="M513.9 345H224.5v-25.5h289.4V345zm-288.9-.4h288.4v-24.7H225v24.7z"/><path style="fill:#606060" d="M235.5 161.1H311v8.6h-75.5z"/><path class="st10" d="M469.4 162h35.4v8.6h-35.4zM426.5 161.8h35.4v8.6h-35.4zM385 161.8h35.4v8.6H385z"/><path class="st16" d="M224.5 319.2h288.9v.2H224.5zM224.5 301.7h288.9v.2H224.5zM224.5 283.7h288.9v.2H224.5zM224.5 266.2h288.9v.2H224.5zM224.5 249.6h288.9v.2H224.5zM224.5 232.1h288.9v.2H224.5zM224.5 216.5h288.9v.2H224.5zM224.5 199h288.9v.2H224.5z"/><path class="st13" d="M229.6 205.2H291v6.1h-61.4zM331.3 205.2h36.9v6.1h-36.9zM426.6 205.2h10v6.1h-10zM229.6 222H304v6.1h-74.4zM331.3 222h36.9v6.1h-36.9zM426.6 222h10v6.1h-10zM229.6 237.9h52.8v6.1h-52.8zM331.3 237.9h36.9v6.1h-36.9zM426.6 237.9h10v6.1h-10zM229.6 255.1H304v6.1h-74.4zM331.3 255.1h36.9v6.1h-36.9zM426.6 255.1h10v6.1h-10zM229.6 271.8H291v6.1h-61.4zM331.3 271.8h36.9v6.1h-36.9zM426.6 271.8h10v6.1h-10zM229.6 289.6h69.7v6.1h-69.7zM331.3 289.6h36.9v6.1h-36.9zM426.6 289.6h10v6.1h-10zM229.6 307.7H304v6.1h-74.4zM331.3 307.7h36.9v6.1h-36.9zM426.6 307.7h10v6.1h-10zM403.1 205.2h10v6.1h-10zM403.1 222h10v6.1h-10zM403.1 237.9h10v6.1h-10zM403.1 255.1h10v6.1h-10zM403.1 271.8h10v6.1h-10zM403.1 289.6h10v6.1h-10zM403.1 307.7h10v6.1h-10z"/><path class="st10" d="M490.9 205.2h13.5v6.1h-13.5zM467.1 205.2h13.5v6.1h-13.5zM490.9 222h13.5v6.1h-13.5zM467.1 222h13.5v6.1h-13.5zM490.9 237.9h13.5v6.1h-13.5zM467.1 237.9h13.5v6.1h-13.5zM490.9 255.1h13.5v6.1h-13.5zM467.1 255.1h13.5v6.1h-13.5zM490.9 271.8h13.5v6.1h-13.5zM467.1 271.8h13.5v6.1h-13.5zM490.9 289.6h13.5v6.1h-13.5zM467.1 289.6h13.5v6.1h-13.5zM490.9 307.7h13.5v6.1h-13.5zM467.1 307.7h13.5v6.1h-13.5z"/><circle class="st10" cx="349.7" cy="332.5" r="6"/><circle class="st12" cx="365.5" cy="332.5" r="6"/><path class="st14" d="M365.5 338.8c-3.5 0-6.3-2.8-6.3-6.3s2.8-6.3 6.3-6.3 6.3 2.8 6.3 6.3-2.8 6.3-6.3 6.3zm0-12.1c-3.2 0-5.8 2.6-5.8 5.8s2.6 5.8 5.8 5.8 5.8-2.6 5.8-5.8-2.6-5.8-5.8-5.8z"/><circle class="st12" cx="380.7" cy="332.5" r="6"/><path class="st14" d="M380.7 338.8c-3.5 0-6.3-2.8-6.3-6.3s2.8-6.3 6.3-6.3 6.3 2.8 6.3 6.3-2.8 6.3-6.3 6.3zm0-12.1c-3.2 0-5.8 2.6-5.8 5.8s2.6 5.8 5.8 5.8 5.8-2.6 5.8-5.8-2.6-5.8-5.8-5.8z"/><circle class="st12" cx="395.6" cy="332.8" r="6"/><path class="st14" d="M395.6 339c-3.5 0-6.3-2.8-6.3-6.3s2.8-6.3 6.3-6.3 6.3 2.8 6.3 6.3-2.8 6.3-6.3 6.3zm0-12c-3.2 0-5.8 2.6-5.8 5.8s2.6 5.8 5.8 5.8 5.8-2.6 5.8-5.8-2.6-5.8-5.8-5.8z"/><path class="st12" d="M363.4 359.2c-.7 24.6-17.4 43.9-38.4 43.6-21-.3-37.4-20.5-36.7-45.1.7-24.6 14.1-37.7 35.1-37.4s40.7 14.3 40 38.9z"/><path d="M322.3 318c-10.9-.2-21.3 4.7-29.2 13.5-7.9 8.8-8.2 14-8.5 26.6-.4 12.6 3.5 24.5 10.9 33.5 7.4 9.1 17.5 14.2 28.4 14.4 4.7.1 9.1-.8 13.3-2.4 15.8-6.1 27.2-23.1 27.8-43.9.7-26.3-20.8-41.4-42.7-41.7zm1.7 82.6c-19.5-.3-34.8-19.3-34.2-42.4.3-11.2.1-15.1 7.1-22.9 4-4.5 8.7-7.8 13.8-9.8 3.7-1.4 7.5-2.1 11.4-2.1 9.3.1 17.9 4.7 24.1 12.7 6.3 8.1 13.8 12.1 13.4 23.4-.6 23.3-16.3 41.3-35.6 41.1z"/><path class="st18" d="M323.3 371.7c4.1 10.6 1.7 20.3-5.4 21.6-7.1 1.3-16.1-6.2-20.2-16.8-4.1-10.6-1.7-20.3 5.4-21.6 7.1-1.3 16.1 6.2 20.2 16.8z"/><path class="st12" d="M318.4 378.7c1.2 2.9-.3 5.8-3.4 6.4-3.1.6-6.6-1.2-7.8-4.1-1.2-2.9.3-5.8 3.4-6.4 3.1-.6 6.6 1.2 7.8 4.1zM397.1 364c-.6 20.7-15.8 37.2-33.9 37-18.1-.3-32.3-17.2-31.7-37.9.6-20.7 13.1-33.1 31.2-32.9 18.1.3 35 13.1 34.4 33.8z"/><path d="M361.7 327.8c-9.5-.1-18.6 4-25.5 11.6-6.9 7.5-8.2 13.4-8.5 24.1-.3 10.7 3.1 20.9 9.5 28.6 6.5 7.8 15.3 12.1 24.8 12.3 4.1.1 8.1-.7 11.9-2.1 13.9-5.4 24.3-20.2 24.8-37.7.6-22.4-17.5-36.6-37-36.8zm31.5 36.6c-.4 15.1-9.2 27.8-21.1 32.4-3.1 1.2-6.5 1.8-10 1.8-8-.1-15.4-3.8-20.9-10.4-5.6-6.6-8.5-15.4-8.2-24.6.4-15.1 6.6-23.7 18.4-28.2 3.1-1.2 6.5-1.8 10-1.8 8 .1 17.1 3.3 22.6 9.9 5.6 6.5 9.5 11.6 9.2 20.9z"/><path class="st18" d="M363 375.5c4 8.7 2.1 16.9-4.2 18.4-6.3 1.4-14.8-4.5-18.8-13.2s-2.1-16.9 4.2-18.4c6.4-1.4 14.8 4.5 18.8 13.2z"/><path class="st12" d="M357.9 380.7c1.1 2.5-.2 5-2.9 5.6s-5.7-1-6.8-3.6c-1.1-2.5.2-5 2.9-5.6 2.7-.5 5.7 1.1 6.8 3.6z"/><ellipse transform="rotate(-1.057 227.347 570.082) scale(.99997)" class="st36" cx="227.4" cy="570.1" rx="21.7" ry="5.9"/><path class="st18" d="m266.2 510.1-5.1.1-36.5-115.1 44.8 17.2-3.3 3.4-35.3-11.8z"/><path class="st18" d="m249.6 546.7-2.1 8.3-49.9-158.3 76 30-4.4 3.7-64.6-26z"/><path class="st18" d="M305.3 568.7 226.5 447l66.3 5.3 2 4.8-57.5-4.3 74.9 115.7zM319.1 413.8l2.7 75.4-5.7-.7-4.2-79.5"/><path class="st18" d="M315.8 487.8s-6.6-11.3-13.5-3.9-2.6 17.3-2.6 17.3 2.3 3.1 10.1 3.3c7.8.2 9.6-.2 11-2.6 1.4-2.4 1-13.3 1-13.3l-6-.8zM247.6 554c2 3-13.8-15.7-23-7.2-11.2 10.3-4.3 24.1-4.3 24.1s3.8 3.3 16.4 3.1c16.5-.3 15.2-4.6 16.2-8.8 1.8-7.1-4.5-21.9-4.5-21.9l-.8 10.7zM261.1 507.8s-3.2-10.5-10.6-3.7c-4.4 4.1-4.6 9-4 12.3.5 2.6 2.5 4.7 5.1 5.3 1.6.3 3.9.7 6.9.5 10.9-.7 9.3-4.1 9.3-5.7 0-9.2-3.5-14.8-3.5-14.8l-3.2 6.1zM305.2 567.9s-9.9-16.4-21.3-6.1c-11.4 10.3-2.7 23.2-2.7 23.2s3.9 4 16.8 3.8c16.9-.3 18.2-8.9 16.9-13.2-4.5-14.8-7.1-8-7-8.3l-2.7.6zM415 507.4l6-.1 17-105.2-69 38.2 1.6 8.8 59.8-36.2z"/><path class="st18" d="m413.8 541.9 5.2 5.4 28.3-77.4-80.4-19.6-5.3 7.4 76.2 16.7zM344.6 569.8l10.7-86.3-34.1-25.4-1.8 6.7 29 24-9.8 81z"/><path class="st18" d="m358.5 418.8.1 72.5 5.7 2.1 1.3-79.7"/><path class="st18" d="M364.6 492.6s5.3-11.5 12.4-4.4 3.3 17.2 3.3 17.2-2.2 3.2-10 3.6-9.6.2-11.1-2.2c-1.5-2.4-.2-20.2-.2-20.2l5.6 6zM419.7 546.3s9.3-18.8 20.9-8.9c6.5 5.6 7.3 12.5 6.8 17.5-.5 4.5-3.8 8.2-8.2 9.2-2.4.5-5.6 1-9.7 1-16.5.3-16.2-5.8-17.5-10-2.1-7.1 2.2-14.2 2.2-14.2l5.5 5.4zM420.9 505.8s5.4-13.4 13.1-6.8c4.3 3.7 4.9 8.3 4.5 11.6-.3 3-2.5 5.4-5.4 6.1-1.6.4-3.7.6-6.4.7-10.9.2-11.4-2.5-12.3-5.3-1.4-4.7 3-16.7 3-16.7l3.5 10.4zM345.5 564.5s8.4-15.9 20.2-6c11.8 9.9 5.3 23.9 5.3 23.9s-3.7 4.2-16.7 4.4c-16.9.3-17.9-8.1-17.4-12.5 2.4-18.5 5.6-14 5.6-14l3 4.2z"/><path d="M366.6 345.4c41.6 30.2 40 53.4 13 90.6-21.3 29.3-55.4 38.7-89.1 14.2s-29.3-55.3-8-84.7c21.4-29.3 50.4-44.6 84.1-20.1z" style="fill:#38a9b4"/><path class="st18" d="M381.9 438.8c-11.3 15.5-25.7 25.3-41.7 28.4-17.1 3.3-35.1-1.5-52-13.8-31.6-22.9-34.7-53.7-9-89.2 26-35.9 57.5-43.2 88.6-20.6 16.8 12.2 31.8 27.3 33.7 45.2 1.8 16.3-8.4 34.6-19.6 50zm-97-70.5c-23.7 32.6-21.4 59.6 7 80.2 30.1 21.9 62.5 16.6 84.5-13.8 28-38.6 25.4-58.9-12-86.1-35.4-25.6-62.8-3.4-79.5 19.7z"/><ellipse transform="rotate(-1.057 290.487 584.308) scale(.99997)" class="st36" cx="290.6" cy="584.3" rx="24" ry="7.7"/><ellipse transform="rotate(-1.057 253.969 516.663) scale(.99997)" class="st36" cx="254" cy="516.7" rx="14" ry="6.3"/><ellipse transform="rotate(-1.057 306.13 499.427) scale(.99997)" class="st36" cx="306.2" cy="499.4" rx="15.8" ry="6.3"/><ellipse transform="rotate(-1.057 444.325 560.692) scale(.99997)" class="st36" cx="444.4" cy="560.7" rx="21.7" ry="5.9"/><ellipse transform="rotate(-1.057 370.066 581.954) scale(.99997)" class="st36" cx="370.1" cy="581.9" rx="24" ry="7.7"/><ellipse transform="rotate(-1.057 436.654 512.424) scale(.99997)" class="st36" cx="436.7" cy="512.4" rx="14" ry="6.3"/><ellipse transform="rotate(-1.057 381.318 504.388) scale(.99997)" class="st36" cx="381.4" cy="504.4" rx="15.8" ry="6.3"/><path class="st56" d="m325.016 440.245-1.786 2.655-15.764-10.606 1.786-2.655z"/><path class="st56" d="m324.573 431.401 1.15 2.986-17.73 6.827-1.15-2.986z"/></svg>
