<?xml version="1.0" encoding="UTF-8"?><svg xmlns="http://www.w3.org/2000/svg" viewBox="0 0 600 591.16"><defs><style>.c{fill:#46b6bf;}</style></defs><g id="a"/><g id="b"><g><path class="c" d="M182.71,162.01c-73.58,64.74-80.87,176.85-16.03,250.6,64.66,73.61,176.88,80.86,250.47,16.2,73.66-64.67,80.88-176.89,16.2-250.49-64.67-73.64-176.97-80.97-250.63-16.31Zm205.99,234.42c-55.7,48.93-140.65,43.72-189.81-12.27-48.88-55.93-43.46-140.77,12.42-189.66,55.64-49.17,140.64-43.71,189.62,12.07,49.24,55.89,43.59,140.91-12.24,189.87Z"/><path class="c" d="M598.91,321.22c.95-11.63,1.34-23.41,.93-35.27-.33-11.53-1.43-22.93-3.11-34.08l-59.38-9.84-20.13-56.18,39.57-45.36c-12-19.97-26.28-38.35-42.42-54.88l-53.84,27.03-49.36-33.56,5.34-60.04c-20.47-8.63-42.12-15.12-64.59-19.02l-27.97,53.43-59.7,1.4L233.58,2.88c-22.95,5.23-44.88,13.01-65.46,23.13l8.79,59.63-47.45,36.29-55.29-23.87c-15.17,17.37-28.41,36.51-39.29,57.15l42.07,43.01-16.95,57.21L1.26,268.68c-1.06,11.84-1.51,23.94-1.13,36.23,.42,11.22,1.42,22.22,2.94,33.07l59.41,10.01,19.94,56.25-39.83,45.25c12.04,19.98,26.25,38.56,42.4,55.14l53.95-26.86,49.26,33.71-5.58,60.06c21.13,8.94,43.41,15.67,66.57,19.63l27.81-53.56,59.69-1.65,30.76,51.88c22.93-5.33,44.83-13.23,65.4-23.39l-8.97-59.6,47.28-36.5,55.34,23.72c15.18-17.49,28.38-36.66,39.17-57.28l-42.32-42.84,16.74-57.38,58.8-13.33Zm-169.03,122.07c-81.58,71.68-206,63.66-277.68-17.96-71.88-81.76-63.8-206.06,17.78-277.83,81.67-71.7,206.17-63.56,277.86,18.08,71.71,81.59,63.71,206.01-17.96,277.7Z"/></g></g></svg>
