<svg xmlns="http://www.w3.org/2000/svg" width="646" height="646"><style>.st12{fill:#fff}.st18{fill:#1d1e1c}.st23{fill:#d44d41}.st24{opacity:.3}.st30{opacity:.2;fill:#020202}.st31{fill:#f3554b}.st32{fill:#bf2c28}.st33{fill:#1f6a7b}.st34{fill:#0594af}</style><ellipse cx="349" cy="531.8" rx="65.6" ry="25.2" style="opacity:.15"/><path class="st18" d="m258.9 104.3-56.8-79.6-5.5 2.6 60.4 83.2"/><path class="st18" d="M200.5 31.9S187.2 20.7 196 11s18.5-2.3 18.5-2.3 2.7 3.8 1.3 15.6c-1.8 15.3-6.7 14.9-10.1 14.6M318.9 219.3l-1.4 4.3-79.3-11.7 43.1-40.8 6 3.2-39.6 34.6z"/><path class="st18" d="M316.4 223.2s-10.9.8-7.9 7.8c1.7 3.9 4.9 5.4 7.3 5.9 2.2.5 4.4-.5 5.6-2.5.6-1.1 1.3-2.5 2-4.5 2.6-7.7.8-8.8-1-10-3.1-2.1-12.6-1.7-12.6-1.7l6.6 5zM350.4 153.9l2.9-2.3L324.5 95l-20.4 43.5 3.9 3.6 16.6-39.2z"/><path class="st18" d="M352.8 150.9s-2.1-8.4 4-8c3.4.2 5.3 2.2 6.3 3.9.9 1.5.7 3.5-.5 4.9-.7.8-1.6 1.7-2.9 2.7-5.3 4.1-6.5 3-7.9 1.9-2.3-1.8-4.5-9.1-4.5-9.1l5.5 3.7zM337.3 138.6l1.7-2.3-44.9-44.4-2 39.8 4.6 2.5.3-35.6z"/><path class="st18" d="M338.3 135.8s-4.8-6.9.6-7.4c3-.3 5.4 1.2 6.8 2.5 1.3 1.2 1.8 2.9 1.3 4.2-.3.7-.8 1.6-1.5 2.7-3.1 4.2-4.5 3.4-6.1 2.7-2.6-1.2-7.1-7.1-7.1-7.1l6 2.4z"/><path d="M316.8 507c10.4-23.8-3.1-66.9-3.1-66.9l-46.8-32.7-46.8-32.7s-45 2.1-63.8 20.1c-18.8 18-41.4 68.1-41.4 68.1l27.2-13.4S105 489.6 105.7 551c.6 61.4-.5 88-.5 88s24.6-10.2 82.5-30.7 82.8-69.1 82.8-69.1l-3.2 30.1c-.3 0 39-38.5 49.5-62.3z" style="fill:gold"/><path d="M313.7 440.1s13.5 43 3.1 66.9-49.8 62.3-49.8 62.3l3.2-30.1s-24.9 48.6-82.8 69.1S105 639 105 639l161.9-231.6 46.8 32.7z" style="fill:#ff9700"/><path d="m266.4 408-35.1-24.5s-32.5-1-45.1 10.3c-12.6 11.3-26.2 44.3-26.2 44.3l18.9-7.7s-24.6 25.4-20.8 67.4c3.2 35.9 4.2 54.3 4.4 58.9L266.4 408z" style="fill:#ffffe8"/><path d="m266.5 407.9 35.1 24.5s12.1 30.1 5.8 45.9c-6.2 15.7-32.6 39.9-32.6 39.9l.7-20.4s-15.3 31.9-56.1 42.7c-34.8 9.3-52.5 14.8-56.8 16.2l103.9-148.8z" style="fill:#f2dab8"/><path class="st23" d="M439.1 355.3s16.1 43 14.5 58.4-15.3 38.7-39.9 63.9c-24.6 25.2-44.1 40-44.1 40l-14.7-81.1 84.2-81.2z"/><path class="st24" d="m354.9 436.6 3.4 19c13.4-7.3 30.7-20.7 44.2-30.1 13.3-9.3 32.5-36.7 42.8-52.1-3.3-10.2-6.2-18.1-6.2-18.1l-84.2 81.3z"/><path class="st23" d="M257.3 221.7s-45.9-.4-59.8 6.5c-13.9 6.9-31.1 27.6-46.3 59.4s-22.4 55.2-22.4 55.2l81.2-14.1 47.3-107z"/><path d="M246.8 220.9c-14.3.3-40 1.5-49.8 6.4-13.9 6.9-31.1 27.6-46.3 59.4-4.3 8.9-7.9 17.2-11 24.5 14.8-18.1 44.4-50.1 53-60.1 8-9.2 37.7-23 54.1-30.2z" style="opacity:.3;fill:#fff"/><path d="M537.5 186.4c12-44.1 4.5-125.7 1.2-155.1-.7-5.9-6.3-9.8-12-8.4-28.8 7-108 28-145.3 54.4-46 32.6-90.4 79.5-121.7 129-30.7 48.5-60.8 121.4-60.7 147 0 1 .2 2 .5 3 2.3 6.6 13.7 33.2 58.1 64.3 44.4 31 73.3 32.6 80.3 32.5 1 0 2-.2 3-.5 24.1-8.7 82.2-62 117.2-107.5 35.8-46.4 64.6-104.3 79.4-158.7z" style="fill:#f01c01"/><path class="st23" d="M401.3 66.2c-7.7 3.9-14.7 8-20.7 12.2-46 32.6-90.4 79.5-121.7 129-13.4 21.2-26.6 46.9-37.3 71.4 18.3 24.7 45.9 58 77.3 82.7 36 28.3 74.9 42.7 98.7 49.5 21-19.6 43-43.1 59.8-64.8 35.7-46.4 64.6-104.3 79.3-158.6 2-7.2 3.4-15.4 4.4-24.3-18.2-18-41.6-40-63.8-57.1-26-20.1-55.6-32.8-76-40z"/><path d="M379.4 78.7c-45.3 32.5-88.9 78.8-119.8 127.7-9.3 14.7-18.5 31.6-26.9 48.8v.1s9 43.2 76.3 91.8c51.5 37.3 94.9 40.6 112.4 40.2 13.3-13.8 26.1-28.3 36.7-42.2 35.7-46.4 64.6-104.3 79.3-158.6.2-.7.4-1.5.6-2.3-18.3-19.7-43.8-44.5-70.9-63.4-34.3-24.1-68.4-36.4-87.7-42.1z" style="fill:#dbdad9"/><path d="M379.3 79.1c-46 32.6-90.4 79.5-121.7 129s-62 124.3-60.6 148.5c0 0 2.2 9 12.5 23 9.1-35.6 29.7-97.3 74-168.3C328.2 139.9 425 73.1 489.2 34.1c-35.7 10.2-83.4 26.3-109.9 45z" style="opacity:.4;fill:#fff"/><path d="M536.7 187.5c-14.8 54.4-43.6 112.3-79.3 158.6S362 447 338.8 454.1c0 0-9.2 1-25.9-3.9 30.3-20.8 81.1-61.3 132.5-127.4 51.8-66.5 81.2-180.3 95.8-254 2.7 37.1 4 87.4-4.5 118.7z" style="opacity:.2"/><circle transform="rotate(-55.054 418.75 192.785)" class="st30" cx="418.8" cy="192.8" r="58.2"/><circle transform="rotate(-55.054 417.872 186.052)" class="st31" cx="417.9" cy="186.1" r="58.2"/><path class="st32" d="M383.6 235.2c-27.1-18.9-33.7-56.4-14.8-83.5 18.9-27.1 56.4-33.7 83.5-14.8s33.7 56.4 14.8 83.5-56.4 33.7-83.5 14.8zm66.7-95.5c-25.6-17.9-60.9-11.6-78.7 14-17.9 25.6-11.6 60.9 14 78.7 25.6 17.9 60.9 11.6 78.7-14s11.5-60.8-14-78.7z"/><circle transform="rotate(-55.054 418.749 187.494)" class="st33" cx="418.8" cy="187.5" r="44.9"/><path class="st34" d="M454.9 213c3.2-4.6 5.4-9.6 6.7-14.8-1.5-9.2-6.6-17.8-14.8-23.5-16.2-11.3-38.6-7.4-49.9 8.8-9.8 14.1-8.2 32.7 3 44.8 19.3 8.5 42.5 2.6 55-15.3z"/><circle transform="rotate(-55.054 349.464 286.134)" class="st30" cx="349.5" cy="286.1" r="32.1"/><circle transform="rotate(-55.054 348.98 282.42)" class="st31" cx="349" cy="282.4" r="32.1"/><path class="st32" d="M329.6 310.1c-15.3-10.7-19-31.8-8.3-47.1s31.8-19 47.1-8.3 19 31.8 8.3 47.1-31.8 19-47.1 8.3zm36.8-52.6c-13.7-9.6-32.7-6.2-42.4 7.5-9.6 13.7-6.2 32.7 7.5 42.4 13.7 9.6 32.7 6.2 42.4-7.5 9.6-13.8 6.3-32.8-7.5-42.4z"/><circle transform="rotate(-55.054 349.463 283.216)" class="st33" cx="349.5" cy="283.2" r="24.8"/><path class="st34" d="M369.4 297.3c1.8-2.5 3-5.3 3.7-8.1-.8-5.1-3.6-9.8-8.2-13-8.9-6.3-21.3-4.1-27.5 4.9-5.4 7.8-4.5 18 1.7 24.7 10.6 4.6 23.4 1.3 30.3-8.5z"/><path class="st23" d="m318.9 354.5 6.6-34-29.7 17.9s-26.3 36.9-35.4 56.8c-9.1 19.9-32.3 64.7-32.3 64.7s34-37.2 49.6-52.6c15.6-15.4 41.2-52.8 41.2-52.8z"/><path class="st24" d="m325.1 321.1-6.6 34s-25.6 37.4-41.2 52.8c-15.6 15.4-49.6 52.6-49.6 52.6l97.4-139.4z"/><path d="M292 103.8c24.1 18.7 21.3 48.7 2.1 73.5-19.2 24.8-46.6 33.8-70.7 15.1s-27.3-51.3-8.1-76.2 52.6-31.1 76.7-12.4z" style="fill:#38a9b4"/><path class="st18" d="M295.7 179.4c-10.2 13.1-22.3 21.7-35 24.8-13.6 3.3-27.2.2-39.3-9.2-22.6-17.5-31.7-49.9-8.5-79.8 23.5-30.3 58.1-30.2 80.4-13 12 9.3 18.4 21.9 18.3 36.5-.2 13.2-5.8 27.7-15.9 40.7zm-78.9-61.1c-21.4 27.6-12.5 56.8 7.7 72.5 21.5 16.7 47.3 11.1 67.1-14.5 20.2-26 19.5-53.4-1.7-69.9-25.2-19.5-57.9-7.6-73.1 11.9z"/><ellipse transform="rotate(-64.754 265.406 93.782)" class="st12" cx="265.4" cy="93.8" rx="14.3" ry="26.8"/><path class="st18" d="M276.9 112.7c-5.7 0-12.1-1.6-18.3-4.5-6.7-3.2-12.4-7.6-16-12.4-3.8-5.1-4.9-10.2-3-14.2 1.9-4.1 6.5-6.5 12.9-6.8 6-.3 13 1.3 19.7 4.5 6.7 3.2 12.4 7.6 16 12.4 3.8 5.1 4.9 10.2 3 14.2s-6.5 6.5-12.9 6.8h-1.4zM254 78.2h-1.3c-5.1.3-8.6 2-10 4.8-1.3 2.9-.4 6.7 2.6 10.8 3.3 4.4 8.5 8.4 14.7 11.3 6.2 2.9 12.7 4.4 18.1 4.1 5.1-.3 8.6-2 10-4.8 1.3-2.9.4-6.7-2.6-10.8-3.3-4.4-8.5-8.4-14.7-11.3-5.8-2.6-11.7-4.1-16.8-4.1z"/><ellipse transform="rotate(-65.58 264.977 89.453)" class="st18" cx="265" cy="89.4" rx="5.5" ry="11.8"/><ellipse transform="rotate(-59.023 262.99 88.725)" class="st12" cx="263" cy="88.7" rx="2.6" ry="3.5"/><ellipse transform="rotate(-64.754 255.768 117.508)" class="st12" cx="255.8" cy="117.5" rx="20.2" ry="35.2"/><path class="st18" d="M269.4 142.9c-7 0-15-1.8-23-5.6-8.8-4.1-16.1-10-20.7-16.5-4.8-6.8-6-13.6-3.4-19 2.6-5.5 8.6-8.8 16.8-9.5 7.9-.6 17.1 1.3 25.9 5.4 18.7 8.8 29.3 24.5 24.1 35.6-2.9 6.3-10.4 9.6-19.7 9.6zm-27.2-47.4c-.9 0-1.9 0-2.8.1-7 .6-12 3.2-14 7.6-2 4.3-.9 9.9 3.1 15.6 4.2 6.1 11.1 11.5 19.3 15.4 16.7 7.9 33.9 6.8 38.2-2.4 4.4-9.2-5.7-23.2-22.4-31-7.2-3.4-14.7-5.3-21.4-5.3z"/><ellipse transform="rotate(-65.58 255.162 112.775)" class="st18" cx="255.2" cy="112.8" rx="7.8" ry="17"/><ellipse transform="rotate(-59.023 251.18 110.148)" class="st12" cx="251.2" cy="110.2" rx="3.3" ry="4.4"/><path class="st18" d="m351.9 255-34-95.9-40.3 8.6 4.7 5.1 33.7-4.9 32.6 92.2z"/><path class="st18" d="M358.8 264.3s8.4 10.3-2 17.3-17.8-2.1-17.8-2.1-1.8-4.2 1.9-15 4.9-13.2 8-14.3c3-1.2 9.9 14.1 9.9 14.1zM376.3 210.1l-35.3-85-34.2 11.3 3.4 4.5 28.2-9 34.6 83.3z"/><path class="st18" d="M387.5 221.5s10.4 8.4 1.6 17.4c-8.8 9-17.9 1.7-17.9 1.7s-2.6-3.8-1.2-15.1c1.4-11.3 2.1-13.9 4.8-15.7 2.8-1.8 12.7 11.7 12.7 11.7zM308.2 288.9l-17.3-65.4-12-29.5-5.4 3.1 13.6 30.7 16.1 63.7z"/><path class="st18" d="M316 300.4s8.3 10.4-2.3 17.3c-10.5 6.9-17.8-2.3-17.8-2.3s-1.7-4.3 2.1-15 5.1-13.1 8.2-14.2c3.1-1.1 9.8 14.2 9.8 14.2zM260 157.4l-113.3-43.3-3.9 5.1 119.6 45.3"/><path class="st18" d="M150 121.4s-21.5-2.6-18.9-18.6 17.6-15 17.6-15 5.4 2.1 11.9 15.3c8.6 17.1 3.2 20.1-.5 22"/></svg>
