<?xml version="1.0" encoding="utf-8"?>
<!-- Generator: Adobe Illustrator 25.4.1, SVG Export Plug-In . SVG Version: 6.00 Build 0)  -->
<svg version="1.1" id="Calque_1" xmlns="http://www.w3.org/2000/svg" xmlns:xlink="http://www.w3.org/1999/xlink" x="0px" y="0px"
	 viewBox="0 0 1439.6 212.1" style="enable-background:new 0 0 1439.6 212.1;" xml:space="preserve">
<style type="text/css">
	.st0{fill:#EE4322;}
    .st1{fill:#ffffff;}
</style>
<g>
	<g>
		<path class="st1" d="M292.2,108.4h56.5v21.2h-56.5V108.4z"/>
		<path class="st1" d="M461.8,169.6h-28.3v-31.5c0-16.9,11.7-30.8,28.3-34.5L461.8,169.6z"/>
		<path class="st1" d="M801.1,166.3c-4.8,1.4-11,2.7-18.6,3.9c-7.6,1.2-15.6,1.8-23.9,1.8c-8.5,0-14.1-1.1-19.8-3.4c-5.6-2.3-10.1-5.5-13.4-9.7
			c-3.3-4.1-5.6-9.1-7-14.8c-1.4-5.7-2.1-12.1-2.1-18.9V68.3h28.3v53.4c0,9.2,1.2,15.8,3.6,19.9c2.4,4.1,5.5,6.1,12.1,6.1
			c2,0,4.2-0.1,6.5-0.3c2.3-0.2,4.3-0.4,6.1-0.7V68.3h28.3V166.3z"/>
		<g>
			<path class="st0" d="M1237.3,165.5c-8.2-4.3-14.6-10.5-19.2-18.5c-4.7-8-7-17.4-7-28.1c0-10.6,2.4-19.9,7.1-28
				c4.7-8.1,11.2-14.3,19.4-18.6c8.2-4.3,17.4-6.5,27.7-6.5c10.2,0,19.4,2.2,27.7,6.5c8.2,4.3,14.7,10.5,19.4,18.6
				c4.7,8.1,7.1,17.4,7.1,28s-2.4,19.9-7.2,28c-4.8,8.1-11.3,14.3-19.6,18.6c-8.3,4.3-17.5,6.5-27.7,6.5
				C1254.7,172,1245.5,169.9,1237.3,165.5z M1280.5,138c4.3-4.4,6.4-10.8,6.4-19s-2.1-14.6-6.3-19c-4.2-4.4-9.3-6.6-15.4-6.6
				c-6.2,0-11.4,2.2-15.5,6.6c-4.1,4.4-6.2,10.7-6.2,19.1c0,8.3,2,14.6,6.1,19c4,4.4,9.1,6.7,15.2,6.7
				C1271,144.7,1276.2,142.4,1280.5,138z"/>
		</g>
		<g>
			<path class="st0" d="M1117.2,165.5c-8.2-4.3-14.6-10.5-19.2-18.5c-4.7-8-7-17.4-7-28.1c0-10.6,2.4-19.9,7.1-28
				c4.7-8.1,11.2-14.3,19.4-18.6c8.2-4.3,17.4-6.5,27.7-6.5c10.2,0,19.4,2.2,27.7,6.5c8.2,4.3,14.7,10.5,19.4,18.6
				c4.7,8.1,7.1,17.4,7.1,28s-2.4,19.9-7.2,28c-4.8,8.1-11.3,14.3-19.6,18.6c-8.3,4.3-17.5,6.5-27.7,6.5
				C1134.5,172,1125.3,169.9,1117.2,165.5z M1160.3,138c4.3-4.4,6.4-10.8,6.4-19s-2.1-14.6-6.3-19c-4.2-4.4-9.3-6.6-15.4-6.6
				c-6.2,0-11.4,2.2-15.5,6.6c-4.1,4.4-6.2,10.7-6.2,19.1c0,8.3,2,14.6,6.1,19c4,4.4,9.1,6.7,15.2,6.7
				C1150.8,144.7,1156,142.4,1160.3,138z"/>
		</g>
		<path class="st0" d="M1083.3,155.6c-3-5.1-5.2-10.5-6.7-16.3c-4,3.6-8.8,5.4-14.3,5.4c-6.1,0-11.2-2.2-15.2-6.7
			c-4-4.4-6.1-10.8-6.1-19c0-8.4,2.1-14.7,6.2-19.1c4.1-4.4,9.3-6.6,15.5-6.6c5.4,0,10.1,1.8,14,5.3c1.6-5.7,3.8-11.1,6.8-16.2
			c2.1-3.6,4.5-6.8,7.1-9.9c-0.1,0-0.1-0.1-0.2-0.1c-8.2-4.3-17.4-6.5-27.7-6.5c-10.2,0-19.4,2.2-27.7,6.5
			c-8.2,4.3-14.7,10.5-19.4,18.6c-4.7,8.1-7.1,17.4-7.1,28c0,10.7,2.3,20.1,7,28.1c4.7,8,11.1,14.2,19.2,18.5
			c8.2,4.3,17.3,6.5,27.6,6.5c10.2,0,19.5-2.2,27.8-6.5c0.1,0,0.2-0.1,0.2-0.1C1087.7,162.4,1085.3,159.1,1083.3,155.6z"/>
		<path class="st1" d="M77.8,141.4H28.3V0C10.6,5.7,0,22.8,0,41.5v128.2h77.8V141.4z"/>
		<path class="st1" d="M327.5,0v28.3H377v141.4h28.3V28.3l25.9,0c15.6,0,28.3-12.7,28.3-28.3v0L327.5,0z"/>
		<path class="st1" d="M691.5,165.6c-1.5,0.8-3.6,1.5-6.1,2.3c-2.6,0.8-5.4,1.4-8.5,2c-3.1,0.6-6.5,1.1-10,1.4c-3.6,0.4-7.1,0.6-10.7,0.6
			c-9.1,0-16.9-1.3-23.6-4c-6.7-2.7-12.2-6.3-16.6-11c-4.4-4.7-7.7-10.2-9.8-16.5s-3.2-13.3-3.2-20.7c0-8.9,1.4-16.7,4.1-23.4
			c2.7-6.7,6.3-12.3,10.8-16.7c4.5-4.5,9.6-7.8,15.4-10.1C639,67.1,645,66,651.1,66c14.3,0,25.6,4.4,33.9,13.1
			c8.3,8.7,12.4,21.6,12.4,38.5c0,1.7-0.1,3.5-0.2,5.5c-0.1,2-0.3,3.7-0.4,5.3h-64.7c0.6,5.9,3.4,10.5,8.2,14
			c4.8,3.4,11.3,5.2,19.5,5.2c5.2,0,10.4-0.5,15.4-1.4c1.6-0.3,3.1-0.6,4.5-1L691.5,165.6z M669.9,108.5c-0.1-2.4-0.5-4.8-1.2-7.1
			c-0.7-2.3-1.8-4.3-3.3-6.1c-1.5-1.8-3.3-3.3-5.5-4.4c-2.2-1.1-5-1.7-8.3-1.7c-3.2,0-5.9,0.5-8.2,1.6c-2.3,1.1-4.2,2.5-5.7,4.3
			c-1.5,1.8-2.7,3.9-3.5,6.2c-0.8,2.4-1.4,4.8-1.8,7.2H669.9z"/>
		<path class="st1" d="M271.8,122c-2.4-2.6-5.6-5-9.7-7.3c-4.1-2.2-9.2-4.5-15.5-6.8c-3.1-1.2-5.6-2.2-7.6-3.2c-2-1-3.5-1.9-4.7-2.7
			c-1.1-0.8-1.9-1.7-2.3-2.6c-0.4-0.9-0.6-1.9-0.6-3.1c0-5,4.5-7.5,13.4-7.5c4.8,0,9.2,0.4,13.1,1.3c3.6,0.8,7,1.8,10.1,2.8V69.3
			c-2.3-0.6-4.8-1.2-7.7-1.7c-5.6-1.1-11.5-1.6-17.6-1.6c-12.2,0-21.9,2.7-28.9,8.2c-7,5.5-10.5,12.9-10.5,22.4
			c0,4.8,0.7,9,2.1,12.4c1.4,3.4,3.4,6.4,5.9,8.9c2.5,2.5,5.6,4.6,9.3,6.4c3.6,1.8,7.7,3.5,12.1,5.2c5.7,2.2,10,4.1,12.8,5.8
			c2.8,1.7,4.2,3.7,4.2,6c0,2.9-1.1,4.9-3.3,5.9c-2.2,1-5.9,1.5-11.1,1.5c-5,0-10-0.5-15.1-1.6c-2.7-0.6-5.4-1.3-8-2.1l-11.7,20.7
			c2.3,1,6.4,2.3,12.3,3.8c5.9,1.5,13.4,2.3,22.3,2.3c13.6,0,24.2-2.5,31.7-7.6c7.5-5.1,11.2-12.6,11.2-22.5c0-4.2-0.5-7.9-1.4-11.1
			C275.8,127.5,274.2,124.6,271.8,122z"/>
		<path class="st1" d="M952.6,122.1c-2.4-2.6-5.6-5-9.7-7.3c-4.1-2.2-9.2-4.5-15.5-6.8c-3.1-1.2-5.6-2.2-7.6-3.2c-2-1-3.5-1.9-4.7-2.7
			c-1.1-0.8-1.9-1.7-2.3-2.6c-0.4-0.9-0.6-1.9-0.6-3.1c0-5,4.5-7.5,13.4-7.5c4.8,0,9.2,0.4,13.1,1.3c3.6,0.8,7,1.8,10.1,2.8V69.4
			c-2.3-0.6-4.8-1.2-7.7-1.7c-5.6-1.1-11.5-1.6-17.6-1.6c-12.2,0-21.9,2.7-28.9,8.2c-7,5.5-10.5,12.9-10.5,22.4
			c0,4.8,0.7,9,2.1,12.4c1.4,3.4,3.4,6.4,5.9,8.9c2.5,2.5,5.6,4.6,9.3,6.4c3.6,1.8,7.7,3.5,12.1,5.2c5.7,2.2,10,4.1,12.8,5.8
			c2.8,1.7,4.2,3.7,4.2,6c0,2.9-1.1,4.9-3.3,5.9c-2.2,1-5.9,1.5-11.1,1.5c-5,0-10-0.5-15.1-1.6c-2.7-0.6-5.4-1.3-8-2.1l-11.7,20.7
			c2.3,1,6.4,2.3,12.3,3.8c5.9,1.5,13.4,2.3,22.3,2.3c13.6,0,24.2-2.5,31.7-7.6c7.5-5.1,11.2-12.6,11.2-22.5c0-4.2-0.5-7.9-1.4-11.1
			C956.6,127.6,954.9,124.7,952.6,122.1z"/>
		<path class="st1" d="M529.9,172c-8.2-0.1-14.9-1-20-2.7c-5.1-1.6-9.2-4-12.1-6.9c-3-3-5-6.6-6.1-10.8c-1.1-4.2-1.6-9-1.6-14.3v-109h28.3v103.3
			c0,2.5,0.2,4.8,0.6,6.8c0.4,2,1.1,3.7,2.2,5.1c1.1,1.4,2.6,2.5,4.6,3.4c2,0.9,4.7,1.5,8.2,1.7L529.9,172z"/>
		<path class="st1" d="M586.5,172c-8.2-0.1-14.9-1-20-2.7c-5.1-1.6-9.2-4-12.1-6.9c-3-3-5-6.6-6.1-10.8c-1.1-4.2-1.6-9-1.6-14.3v-109h28.3v103.3
			c0,2.5,0.2,4.8,0.6,6.8c0.4,2,1.1,3.7,2.2,5.1c1.1,1.4,2.6,2.5,4.6,3.4c2,0.9,4.7,1.5,8.2,1.7L586.5,172z"/>
		<path class="st1" d="M869.2,172c-8.2-0.1-14.9-1-20-2.7c-5.1-1.6-9.2-4-12.1-6.9c-3-3-5-6.6-6.1-10.8c-1.1-4.2-1.6-9-1.6-14.3v-109h28.3v103.3
			c0,2.5,0.2,4.8,0.6,6.8c0.4,2,1.1,3.7,2.2,5.1c1.1,1.4,2.6,2.5,4.6,3.4c2,0.9,4.7,1.5,8.2,1.7L869.2,172z"/>
		<path class="st0" d="M464.2,75.4c0,5.4-1.7,9.5-5.1,12.3c-3.4,2.8-7.2,4.2-11.4,4.2s-8.1-1.4-11.4-4.2c-3.4-2.8-5.1-6.9-5.1-12.3
			c0-5.4,1.7-9.5,5.1-12.3c3.4-2.8,7.2-4.2,11.4-4.2s8.1,1.4,11.4,4.2C462.5,65.9,464.2,70,464.2,75.4z"/>
		<path class="st0" d="M1001.4,155.5c0,5.4-1.7,9.5-5.1,12.3c-3.4,2.8-7.2,4.2-11.4,4.2c-4.3,0-8.1-1.4-11.4-4.2
			c-3.4-2.8-5.1-6.9-5.1-12.3c0-5.4,1.7-9.5,5.1-12.3c3.4-2.8,7.2-4.2,11.4-4.2c4.3,0,8.1,1.4,11.4,4.2S1001.4,150.1,1001.4,155.5z"
			/>
		<path class="st0" d="M1432.5,91c-4.7-8.1-11.2-14.3-19.4-18.6c-8.2-4.3-17.4-6.5-27.7-6.5c-10.2,0-19.4,2.2-27.7,6.5
			c-8.2,4.3-14.7,10.5-19.4,18.6c-4.6,7.8-6.9,16.7-7.1,26.8h0v94.2h28.3v-45.5c7.6,3.6,16.2,5.5,25.5,5.5c10.2,0,19.5-2.2,27.7-6.5
			c8.3-4.3,14.8-10.5,19.6-18.6c4.8-8.1,7.2-17.4,7.2-28S1437.3,99.1,1432.5,91z M1400.7,138c-4.3,4.4-9.5,6.7-15.6,6.7
			c-6.1,0-11.2-2.2-15.2-6.7c-4-4.4-6.1-10.8-6.1-19c0-8.4,2.1-14.7,6.2-19.1c4.1-4.4,9.3-6.6,15.5-6.6c6.1,0,11.2,2.2,15.4,6.6
			c4.2,4.4,6.3,10.8,6.3,19C1407.1,127.2,1405,133.6,1400.7,138z"/>
		<path class="st1" d="M181.5,166c-1.5,0.8-3.6,1.5-6.1,2.3c-2.6,0.8-5.4,1.4-8.5,2c-3.1,0.6-6.5,1.1-10,1.4c-3.6,0.4-7.1,0.6-10.7,0.6
			c-9.1,0-16.9-1.3-23.6-4c-6.7-2.7-12.2-6.3-16.6-11c-4.4-4.7-7.7-10.2-9.8-16.5c-2.1-6.4-3.2-13.3-3.2-20.7
			c0-8.9,1.4-16.7,4.1-23.4c2.7-6.7,6.3-12.3,10.8-16.7c4.5-4.5,9.6-7.8,15.4-10.1c5.8-2.3,11.8-3.4,17.9-3.4
			c14.3,0,25.6,4.4,33.9,13.1c8.3,8.7,12.4,21.6,12.4,38.5c0,1.7-0.1,3.5-0.2,5.5c-0.1,2-0.3,3.7-0.4,5.3h-64.7
			c0.6,5.9,3.4,10.5,8.2,14c4.8,3.4,11.3,5.2,19.5,5.2c5.2,0,10.4-0.5,15.4-1.4c1.6-0.3,3.1-0.6,4.5-1L181.5,166z M159.9,108.9
			c-0.1-2.4-0.5-4.8-1.2-7.1c-0.7-2.3-1.8-4.3-3.3-6.1c-1.5-1.8-3.3-3.3-5.5-4.4c-2.2-1.1-5-1.7-8.3-1.7c-3.2,0-5.9,0.5-8.2,1.6
			c-2.3,1.1-4.2,2.5-5.7,4.3c-1.5,1.8-2.7,3.9-3.5,6.2c-0.8,2.4-1.4,4.8-1.8,7.2H159.9z"/>
	</g>
</g>
</svg>
