<?xml version="1.0" encoding="UTF-8"?><svg id="a" xmlns="http://www.w3.org/2000/svg" viewBox="0 0 990.56 111.81"><defs><style>.b{fill:#fff;}</style></defs><g><path class="b" d="M51.75,4.86l20.54,16.78c5.96,5.02,9.25,9.1,9.72,16.78v59.43c0,7.53-5.96,13.49-13.49,13.49s-13.8-5.96-13.8-13.49v-13.33l-27.29-25.25v38.58c0,7.53-6.12,13.49-13.64,13.49S0,105.38,0,97.86V38.42c.63-7.68,4.23-11.76,10.04-16.78L30.11,4.86c8-6.27,13.8-6.59,21.64,0Zm2.98,52.38V28.7H27.44v28.54h27.29Z"/><path class="b" d="M122.96,83.74v13.17c0,7.68-5.64,13.96-13.33,13.96s-13.8-6.27-13.8-13.96V23.99c0-12.7,10.51-23.21,23.21-23.21h20.86c6.27,0,11.6,2.2,16.15,6.43l15.06,15.05c9.88,9.41,8.15,32.62-1.41,41.87l-13.64,13.02c-4.55,4.55-9.88,6.59-16.15,6.59h-16.94Zm26.35-27.44V28.23l-26.03-.31v28.38h26.03Z"/><path class="b" d="M187.09,98.82V48.21c0-6.89,5.8-12.95,13.8-12.95s13.96,5.51,13.96,12.26v51.31c0,6.75-6.12,12.4-13.96,12.4s-13.8-5.65-13.8-12.4Zm27.15-69.9h-26.59V1.07h26.59V28.93Z"/></g><g><path class="b" d="M310.59,83.74v13.17c0,7.68-5.65,13.96-13.33,13.96s-13.8-6.27-13.8-13.96V23.99c0-12.7,10.51-23.21,23.21-23.21h20.86c6.27,0,11.61,2.2,16.15,6.43l15.05,15.05c9.88,9.41,8.15,32.62-1.41,41.87l-13.64,13.02c-4.55,4.55-9.88,6.59-16.15,6.59h-16.94Zm26.35-27.44V28.23l-26.03-.31v28.38h26.03Z"/><path class="b" d="M373.32,87.03V13.8c0-7.37,6.43-13.49,13.8-13.49,7.84,0,13.96,6.12,13.96,13.49V83.43c13.8,0,9.88-.31,23.52-.31,18.03,0,18.03,27.6,0,27.6h-27.44c-13.02,0-23.84-10.66-23.84-23.68Z"/><path class="b" d="M497.04,4.86l20.54,16.78c5.96,5.02,9.25,9.1,9.72,16.78v59.43c0,7.53-5.96,13.49-13.49,13.49s-13.8-5.96-13.8-13.49v-13.33l-27.29-25.25v38.58c0,7.53-6.12,13.49-13.64,13.49s-13.8-5.96-13.8-13.49V38.42c.63-7.68,4.23-11.76,10.04-16.78l20.07-16.78c8-6.27,13.8-6.59,21.64,0Zm2.98,52.38V28.7h-27.29v28.54h27.29Z"/><path class="b" d="M592.39,.94c17.72,0,17.72,27.29,0,27.29-13.64,0,1.88,0-11.76,0V97.7c0,18.5-27.44,18.5-27.44,0V28.23c-13.64,0,1.88,0-11.76,0-17.88,0-17.88-27.29,0-27.29h50.97Z"/><path class="b" d="M640.69,28.38v18.19h24.62c7.37,0,13.64,6.12,13.64,13.64s-6.27,13.8-13.96,13.8h-24.31v23.99c0,17.88-27.44,17.88-27.44,0V24.15c0-12.86,10.35-23.21,23.05-23.21h34.97c7.68,0,13.8,6.12,13.8,13.49s-6.43,13.96-13.8,13.96h-30.58Z"/><path class="b" d="M717.07,1.1h31.36c12.39,0,23.21,10.19,23.21,23.21v63.04c0,11.29-10.82,23.21-22.42,23.21h-32.78c-11.61,0-23.21-11.92-23.21-23.21V24.31c0-13.64,11.29-23.21,23.84-23.21Zm27.13,27.44h-23.52v54.89h23.52V28.54Z"/><path class="b" d="M848.64,66.02c9.72,5.96,13.17,13.48,13.17,23.37v8c0,7.53-6.12,13.64-13.33,13.64-7.68,0-13.49-6.43-13.49-13.64v-7.68l-26.82-32.62v40.3c0,7.53-5.96,13.64-13.49,13.64s-13.8-6.12-13.8-13.64V14.74c0-7.68,6.12-13.8,13.8-13.8h30.58c6.43,0,11.76,2.35,16.46,6.74l13.33,12.86c4.7,4.7,7.37,10.19,7.37,16.94v6.12c0,10.82-5.02,18.03-13.8,22.43Zm-40.46-37.64v26.35h26.82V28.38h-26.82Z"/><path class="b" d="M918.89,5.18l11.92,12.7,11.92-12.7c6.59-6.9,16-6.9,22.11,0l16,16.62c4.86,5.49,8.94,8.94,9.72,16.62v59.75c0,17.72-27.6,17.72-27.6,0V28.7h-18.35V98.17c0,18.19-27.44,18.19-27.44,0V28.7h-18.03V98.17c0,17.72-27.6,17.72-27.6,0V38.42c.31-7.68,4.7-11.13,9.72-16.62l16-16.62c6.12-6.9,15.53-6.9,21.64,0Z"/></g></svg>
