<?xml version="1.0" encoding="UTF-8"?><svg id="a" xmlns="http://www.w3.org/2000/svg" viewBox="0 0 144 144"><defs><style>.b{fill:#46b6bf;}</style></defs><path class="b" d="M72,144C32.3,144,0,111.7,0,72S32.3,0,72,0s72,32.3,72,72-32.3,72-72,72Zm0-137.9C35.7,6.1,6.1,35.7,6.1,72s29.6,65.9,65.9,65.9,66-29.6,66-65.9S108.4,6.1,72,6.1Z"/><path class="b" d="M72,14.7c-31.2,0-56.5,25.3-56.5,56.5,0,9.7,2.5,18.9,6.8,26.9,1.5-1.1,3.1-2.2,4.9-3.3,31-18.5,58.4-33.7,76.6-62,0,0-1.3,32-19.7,46.9-4.1,3.3-7.6,5.9-10.9,8,9.3-4.9,17.4-10.5,23.7-18,0,0-.5,21.5-16.3,31-5.9,3.5-10.8,5.5-15.8,7,9-2,14.9-4.5,19.6-7.7-4,13.3-12.7,20.3-26.2,22.3-4.9,.5-9.1-.5-13.5-1.5,8.1,4.5,17.4,7,27.3,7,31.2,0,56.5-25.3,56.5-56.5S103.3,14.7,72,14.7Z"/></svg>
