<?xml version="1.0" encoding="UTF-8"?><svg id="a" xmlns="http://www.w3.org/2000/svg" viewBox="0 0 687.87 688.26"><defs><style>.b{fill:rgba(123,196,196,.15);fill-rule:evenodd;}</style></defs><path class="b" d="M342.73,688.2l-.93-38.21-.3-.12c-9.72-4-18.51-8.92-25.82-13.19-14.65-8.47-28.49-16.47-60.15-22.87-16.4-3.27-29.44-4.86-39.86-4.86-27.93,.19-32.01,11.52-35.62,21.51-1.73,4.79-3.37,9.32-7.51,12.19l-1.39-.72c.87-5.24,4.72-11.3,8.12-16.66,1.04-1.63,2.02-3.17,2.89-4.64,7.43-12.38,4.11-17.65-.91-25.62-11.43-19.9-23.83-36.42-37.89-50.5l-.06-.06-.07-.04s-.58-.59-1.2-1.22c-25.81-26.21-48.44-40.64-63.72-40.64-3.56,0-6.8,.77-9.62,2.28-2.73,1.45-5.59,3.2-8.61,5.05-4.57,2.8-9.29,5.7-13.6,7.5l-1.59-3.33c5.12-2.44,25.41-12.39,31.57-19.39l.11-.12,.02-.16c3.87-38.6-4.53-95.15-28.05-128.52-3.46-5.55-7.49-12.2-10.99-19.25l-.12-.25-.27-.03c-2.23-.24-4.69-.35-7.5-.35-3.15,0-6.38,.15-9.51,.29-3.05,.14-6.21,.28-9.21,.28s-7.45-.12-10.85-1.13l-.07-2.93,36.58-.23,.15-.23c25.21-40.01,47.5-85.89,39.97-150.15l-.03-.25-.22-.13c-2.7-1.57-5.98-3.28-9.46-5.1-7.88-4.11-16.78-8.77-21.81-13.27l1.2-2.27c4.72,1.83,9.91,5.03,14.93,8.12,2.24,1.38,4.35,2.68,6.38,3.84,4.45,2.72,8.18,4,11.71,4,3.98,0,7.84-1.51,13.34-5.22,36.82-20.8,66.26-49.08,85.1-81.74,.85-1.47,1.74-2.9,2.61-4.28,4.79-7.65,9.32-14.87,2.96-26.26-1.36-2.45-2.96-4.91-4.5-7.28-3.34-5.15-6.8-10.47-8.12-16.09l1.74-.7c3.43,2.91,6.4,8.84,9.28,14.58,3.07,6.14,6.24,12.49,10.99,17.02l.13,.12h.18c5.49,.44,11.22,.66,17.02,.66,52.9,0,108.25-17.69,131.6-42.06l.14-.14,.45-35.33,2.17-.1,1.34,35.44,.13,.14c10.37,10.99,43.14,26.16,62.81,32.88,17.47,6.17,40.61,9.56,65.15,9.56,6.95,0,13.88-.28,20.59-.82l.21-.02,.13-.16c6.23-7.43,10.94-16.17,15.5-24.62,1.21-2.25,2.42-4.48,3.65-6.68l3.2,1.46c-3.12,8.08-6.76,12.88-9.69,16.76-2.76,3.64-5.14,6.78-5.93,11.04-2.2,12.93,14.9,35.91,25.29,48.45,25.82,31.17,65.24,64.76,82.78,65.09h0c1.29,0,2.5-.17,3.6-.49,3.99-1.14,9.6-4.64,15.53-8.36,3.95-2.47,8.02-5.02,11.54-6.82l1.79,2.82c-15.78,9.68-22.83,13.63-30.61,16.32l-.3,.1-.03,.32c-6.16,62.8,16.02,126.28,41.02,151.37l.14,.14,35.54,.45-.05,2.57-35.61,.68-.14,.16c-11.34,12.38-26.66,43.82-32.78,63.66-9.13,29.96-10.22,54.22-9.02,83.66v.16l.1,.12c4.65,6.11,12.37,10.19,19.84,14.13,4.31,2.28,8.39,4.43,11.88,6.93-.39,1.47-.71,2.32-.93,2.79-1.29-.48-3.61-1.77-4.66-2.36-19.2-10.64-24.18-13.18-29.02-13.75-.38-.04-.77-.06-1.18-.06-9.02,0-26.58,10.56-47,28.25-20.43,17.7-38.66,38.18-48.78,54.79-8.36,13.72-10.87,24.04-7.46,30.66,1.74,4.24,5.22,9.42,8.3,13.99,1.09,1.62,2.15,3.19,3.09,4.66,.91,1.56,2.67,4.58,3.26,6.14-.62,.28-1.79,.71-4.01,1.33-4.42-9.94-13.39-25.01-18.28-31.53l-.14-.19h-.24c-5.3-.25-10.55-.38-15.63-.38-52.67,0-95.06,12.83-133.4,40.38l-.2,.15-.68,36.96-2.38-.05Zm-129.25-81.33c38.95,0,75.9,9.4,104.03,26.47,7.33,4.29,15.48,8.22,22.97,11.07l.6,.23,.07-.64c1.23-11.16,1.12-22.67,1.01-33.79-.02-1.92-.04-3.83-.05-5.74-.02-2.25,.11-4.61,.23-6.89,.5-9.48,1.01-19.29-7.76-25.92-12.51-9.45-32.16-18.54-48.88-22.6-5.42-1.45-19.24-4.19-32.64-4.19-15.45,0-25.29,3.51-29.26,10.44l-28.51,51.74,3.6-.03c2.8-.03,6.16-.06,8.38-.06h.28c1.98-.05,3.96-.07,5.92-.07Zm229.72-61.8c-3.35,0-7.52,.18-12.35,.39-31.39,.7-63.23,12.79-85.17,32.35l-.17,.15v65.05l5.5-1.38c5.14-1.29,11.14-4.76,17.49-8.43,41-23.15,73.72-25.41,122.75-26.39h.73l-.28-.69c-4.85-11.82-10.96-22.21-17.43-33.21-1.52-2.59-3.06-5.2-4.58-7.83-.78-1.32-1.51-2.57-2.2-3.78-5.86-10.14-9.39-16.26-22.66-16.26-.52,0-1.06,0-1.62,.03h0Zm100.66-79.51c-5.25,0-10.25,1.25-14.83,3.72-28.86,15.7-74.18,60.65-62.82,83.39,6.66,13.27,15.5,27.33,24.05,40.93,1.98,3.14,3.92,6.24,5.81,9.27l.42,.68,.43-.68c28.83-45.74,61.26-77.88,105.16-104.22l.64-.38-.6-.45c-16.66-12.35-38.33-27.18-58.14-32.26l-.06-.02h-.06Zm-398.88-.75c-5.07,0-10.54,1.93-17.21,6.06-4.16,2.54-8.64,5.03-13.39,7.67-10.96,6-19.92,11.31-27.99,17.7l-.5,.39,4.53,3.55c5.06,3.97,10.89,7.45,16.53,10.82,4.52,2.7,9.2,5.5,13.38,8.49,33.44,24.8,44.84,43.78,53.99,59.03,4.38,7.31,8.17,13.61,13.57,19.17l3.3,3.4,.36-.37c7.06-7.3,11.97-16.08,18.14-27.69,1.58-3.09,3.33-5.97,5.51-9.08,4.8-7.05,10.77-15.82,6.9-26.51-7.57-21.62-26.63-44.02-52.32-61.44-1.91-1.09-3.8-2.29-5.62-3.45-6-3.81-12.21-7.75-18.97-7.75h-.21Zm127.88,26.1c-3.37,0-7.33,.2-11.77,.59l-.26,.02-28.23,50.42h.84c56.56,.95,65.22,4.93,107.73,28.76l.75,.42-.29-59.23-.32-.12c-6.58-2.48-12.43-5.18-18.08-7.8-14.51-6.72-28.22-13.07-50.05-13.07h-.3Zm145.02,.68c-25.33,0-50.28,7.42-72.15,21.47l-.23,.15,.28,56.34,5.8-1.96c6.64-2.23,11.71-5.26,17.07-8.48,17.16-11.66,42.06-17.32,76.12-17.32,3.31,0,6.75,.05,10.24,.16l.88,.03-27.94-50.06-.27-.02c-3.78-.22-6.76-.33-9.37-.33h-.43Zm-239.13-49.02c-9.84,3.42-19.23,9.07-29.51,17.74l-.64,.54,.78,.31c30.12,11.8,55.87,37.35,78.71,78.11l.43,.77,28.27-48.75-.05-.2c-3.86-15.51-26.11-45.29-57.86-60.86l-.27-.13-5.89,4.16-1.19,.51c-2.42,1.03-4.16,1.78-7.07,3.81-1.89,1.23-2.6,1.62-2.77,1.71l-3.09,1.41,.15,.86Zm309.1-10.89c-18.44,7.94-39.67,28.1-48.76,42.23-10.48,15.1-8.33,18.59-1.93,28.93,.72,1.17,1.5,2.42,2.32,3.79,1.57,2.59,3.13,5.35,4.79,8.27,4.53,7.99,9.21,16.25,14.52,21.87l.38,.4,.36-.41c3.95-4.47,7.08-9.09,10.8-15.95,6.05-11.42,13.54-19.91,21.32-28.31,11.8-12.58,28.32-23.2,47.76-30.71l.95-.37-50.41-30.66-2.1,.9Zm-192.78,10.12c-1.47,0-2.89,.09-4.26,.17l-.47,.03-.14,.17c-4.78,5.75-20.58,32.12-21.93,40.55l-.55,4.59,.53,.03c19.16,1.1,35.01,4.52,48.45,10.45,5.81,2.41,16.21,6.23,24.88,8.88l.66,.2-.85-47.34-.02-.06c-3.8-14.49-37.31-17.62-46.07-17.66h-.22Zm97.74-.41c-18.89,.1-35.97,5.44-46.87,14.63l-.18,.15-.29,50.17,5.62-1.53c7.65-2.08,12.11-4.32,16.42-6.49,4.29-2.65,17.96-8.94,53.18-10.74l.58-.03-1.03-4.96c-2.11-8.76-18.03-35.1-24.11-41.04l-.14-.14h-.68c-.71-.02-1.62-.03-2.51-.04h0Zm186.02-94.67c-11.68,6.71-23.04,32.93-27.42,45.86-6.92,21.89-8.48,45.45-4.41,66.34l.04,.22,59.02,35.81v-.9c-.36-46.74,4.13-82.13,28.16-124.7,4.62-7.68,7.65-13.91,10.11-20.82l.23-.66-65.63-1.22-.12,.07Zm-531.3,7.98c21.28,37.05,31.37,70.33,31.75,104.72,.3,6.61,1.06,19.61,2.71,32.54l.09,.73,.64-.35c6.35-3.49,14.1-7.66,19.76-10.7l1.64-.88c37.91-20.34,39.39-21.14,38.46-47.24-.14-32.23-15.02-71.48-33.17-87.49l-.14-.12H42.78l4.75,8.8Zm158.24,71.58l2.84,3.91c3.06,4.17,6.07,6.03,9.26,8,1.54,.95,3.13,1.94,4.81,3.23,10.52,8,16.43,15.82,22.15,23.38,4.54,6.01,9.23,12.22,16.18,18.44l.47,.42,.3-.56c2.38-4.4,5.29-9.12,8.37-14.13,6.08-9.89,12.38-20.12,15.26-28.92l.05-.14-.04-.15c-4.4-15.67-25.48-33.06-38.06-38.16l-.23-.09-41.37,24.76Zm231.4-22.47c-.91,0-1.76,.11-2.53,.33-12.43,4.27-28.03,24.26-32.9,35.62l-.09,.22,.11,.21c4.29,8.16,8.94,16.34,13.44,24.24,3.45,6.06,7.01,12.32,10.37,18.51l.31,.58,4.16-4.02c5.65-5.45,8.32-9.51,10.91-13.43,3.86-5.85,7.84-11.88,23.73-23.91l10.6-7.7c.48-.44,.87-.74,1.23-1.02,.86-.66,1.61-1.24,2.24-2.72,.11-.27,1.11-1.83,1.65-2.67,.32-.5,.59-.92,.69-1.09l.22-.37-.33-.27c-7.47-6.08-31.46-21.69-43.78-22.5h-.03Zm-317.04-51.81c4.05,8.31,7.5,14.89,10.27,20.18,12.79,24.39,14.43,27.53,15.67,82.33l.02,.82,49.55-27.24v-.28c1.93-37.75-6.05-53.98-19.27-80.85l-.52-1.05-58.8-.29,3.08,6.38Zm393.78-5.6l-.15,.17c-14.67,16.85-24.13,50-22.49,78.81v.2l.16,.14c6.96,6.54,36.18,23.91,45.4,26.34l5.7,1.33-.04-.67c-2.88-45.91,4.04-59.42,15.51-81.81,3.54-6.92,7.56-14.77,11.8-24.65l.3-.71-56.19,.85Zm-180.79,20.32c-4.8,6.81-8.22,13-11.85,19.56-2.11,3.82-4.3,7.77-6.8,11.89-1.04,1.74-2.09,3.48-3.14,5.23-6.09,10.12-12.39,20.58-17.14,30.5l-.25,.53,48.26,13.92-1.23-92.79-7.86,11.15Zm13.17,81.14l47.36-11.77-.25-.55c-3.24-7.2-7.16-14.62-12.35-23.34-2.64-4.52-5.37-9.19-8-14.26-7.91-14.86-18.36-29.88-26.76-41.95l-.93-1.33,.92,93.2Zm52.71-12.46l3.88-6.19c3.36-5.36,6.82-8.82,11.6-13.6l17.58-16.67-.44-.36c-12.43-10.25-54.02-34.53-68.47-39.97-.11-.04-11.31-3.93-11.31-3.93l47.16,80.72Zm-75.17-76.97c-11.99,5.23-59.23,31.48-68.08,40.29l-.36,.36,33.17,32.87,3.11-3.21c12.3-14.09,35.17-58.79,42.22-73.34l.56-1.15-10.62,4.19Zm-139.63-4.18c9.82,21.77,15.9,40.87,15.85,68.83v.85l46.09-25.54,.03-.26c2.29-20.51-5.75-41.88-14.48-51.58l-.15-.16-51.05-.87,3.71,8.72Zm303.15,66.92v-.6c.42-31.4,7.94-50.9,19.95-72.2l.34-.6-.68-.13c-8.84-1.77-15.81-2.4-26.64-2.42-11.46,.05-19.42,.76-25.84,2.32l-.18,.04-.11,.15c-9.03,12.58-13.97,32.02-12.58,49.53l.02,.22,.17,.14c6.98,5.45,31.14,20.41,40.44,22.54h.06c.47,.11,5.04,1.02,5.04,1.02Zm-246.58-70.04c1.27,5.23,2.64,9.36,3.97,13.36,2.26,6.79,4.39,13.2,5.27,23.4l.46,5.34,5.16-1.47c14.81-5.55,61.9-33.19,74.65-44.69l.96-.86-91.83-.6,1.36,5.52Zm112.58-5.19l1.47,.92c4.49,2.8,9.09,5.7,13.71,8.61,28.16,17.74,57.27,36.09,67.76,36.09,.57,0,1.09-.05,1.55-.16l.38-.09,.12-4.4c.31-11,2.42-17.11,4.87-24.18,1.58-4.3,3.51-10.77,4.92-16.48l.15-.62-94.95,.31Zm223.26-2.01h67.47l-2.27-5.99c-2.03-5.32-5.16-10.6-8.2-15.71-2.33-3.92-4.73-7.96-6.57-11.93-17.17-37.53-20.45-69.27-20.32-111.4v-.68l-.65,.2c-13.41,4.14-30.81,14.27-46.16,23.21-4.56,2.65-8.87,5.16-12.98,7.47l-.21,.12-.04,.24c-3.67,23.43-2.07,43.88,5.17,66.29,4.1,13.05,14.05,35.54,24.74,44.31v3.88Zm-135.21-54.39l-.02,.27c-1.34,16.88,3.45,29.04,8.53,41.92,1.45,3.69,2.96,7.5,4.32,11.45l.12,.35,51.27-1.16-1.4-5.41c-2.95-11.33-5.08-15.03-6.95-18.3l-.03-.04-.03-.04c-1.91-2.15-5.79-11.94-10.38-53.27l-.08-.74-45.33,24.98Zm93.77-53.46c-3.05,1.75-6.37,3.72-9.89,5.81-11.72,6.95-25,14.83-33.71,17.87l-.33,.11v.34c-.83,28.35,5.87,64.59,22.69,81.62l.14,.15,55.3,.57-2.17-5.99c-1.7-4.7-3.76-8.22-6.15-12.3-3.61-6.17-8.08-13.82-13.26-29.36-5.12-15.41-5.31-27.79-5.51-40.89-.1-6.51-.21-13.25-.91-20.69l-.07-.77-6.14,3.52Zm-389.07,3.32c.22,45.93-6.44,58.75-18.52,82.02-2.95,5.69-6.3,12.14-9.92,19.81l-.33,.71,58.19,.58,.13-.31c2.26-5.34,4.46-10.09,6.59-14.68,8.82-19.01,15.79-34.03,14.15-66.18v-.27l-50.22-29.31-.06,7.63Zm285.96,57.03c-9.99,3.33-60.67,32.3-66.02,38.5l-6.29,7.28,88.11,.29-.66-5.02c-.74-5.62-1.58-7.41-2.88-9.86-.76-1.43-1.7-3.2-3.06-7.47-2.82-7.27-3.49-17.57-3.57-24.93v-.69l-5.64,1.88Zm-180.15,2.7l-.07,.13c-.23,.41-.72,1.28-.84,2.63l-4.21,16.09c-.7,2.85-1.59,5.33-2.45,7.73-1.32,3.68-2.56,7.15-3.17,11.77l-.67,5.03,91.39-.3-1.12-.89c-18.84-14.9-53.89-35.86-76.54-45.76l-.44-.19-1.88,3.77Zm-51.32-27.94c-2.5,29.38-5.83,36.65-10.43,46.72-2.6,5.68-5.54,12.11-9.04,23.66l-.19,.64,51.34,.29,10.45-22.01c2.73-8.53,3.86-18.98,3.37-31.13v-.28l-44.88-24.63-.61,6.73Zm-119.35-63.75c-2.35,63.3-8.38,75.05-33.8,124.53-1.51,2.95-3.09,6.03-4.75,9.26l-.37,.72,67.08,.56,.14-.13c20.34-17.85,41.38-83.07,31.16-109.62-5.7-11.08-38.71-27.13-54.57-34.84-1.3-.63-2.48-1.21-3.51-1.71l-.67-.33-.71,11.57Zm270.15,127.83l12.32-5.39c9.47-4.11,17.77-9.12,26.55-14.43,2.08-1.26,4.19-2.53,6.34-3.82,7.02-4.35,14.15-8.34,21.04-12.19,5-2.79,10.17-5.69,15.24-8.68l.51-.3-.38-.45c-3.71-4.36-7.23-7.72-11.42-10.88-5.4-4.29-12.13-9.64-19.03-19.84l-3.96-5.86-47.21,81.85Zm-91.48-49.97l-4.75,4.77,.51,.34c14.64,9.69,51.36,33.27,76.15,42.78l1.03,.39-3.48-9.5c-4.89-11.9-31.22-58.39-40.32-67.73l-.36-.37-28.79,29.32Zm85.57,48.14l.91-1.25c11.61-15.92,38.49-59.22,44.76-76.63l1.49-5.22-5.38-.44c-7.79-.63-15.23-2.83-21.79-4.77-5.73-1.69-10.67-3.16-15.04-3.4l-4.65-.26-.3,91.96Zm-9.41-92.44c-2.6,.87-5.03,1.73-7.38,2.56-8.93,3.17-16.64,5.91-28.52,6.82l-5.42,.42,.11,.55c2.24,11.46,30.71,59.3,39.3,69.98l7.67,8.52s.04-8.56,.07-13.25c.13-23.05,.35-61.62-.09-76.83l-.02-.67-5.73,1.91Zm90.37-32.67c-6.32,4.87-24.61,34.97-23.51,42.32,2.65,13.81,27.56,31.71,35.7,35.41l.23,.1,42.93-23.14s-1.87-3.27-2.33-4.09l1.03-2.22-.41-.22c-1.14-.62-1.8-.93-2.33-1.18-1.13-.54-1.52-.72-4.64-3.06-1.56-1.17-3.07-2.28-4.52-3.36-15.52-11.49-24.88-18.43-37.78-43.17l-.28-.53-4.09,3.15Zm-168.64,.39c-4.01,3.44-6.42,7.05-8.97,10.88-.88,1.32-1.78,2.68-2.75,4.02-7.85,9.62-13.3,13.91-22.33,21.03l-.9,.71c-8.05,6.18-13.09,10.42-18.3,16.44l-.44,.5,5.53,2.53c3.56,1.69,7.96,4.42,12.61,7.31,9.51,5.91,20.29,12.6,27.55,12.6h0c.78,0,1.52-.08,2.19-.23,12.04-3.1,28.73-23.78,33.68-35.68l.09-.22-23.83-43.43-4.13,3.55Zm-102.33,23.79l26.56,16.45c.96,.53,1.92,1.07,2.89,1.61,4.72,2.67,9.6,5.42,13.36,5.42,.13,0,.27,0,.4-.01h0c4.67,0,8.68-2.68,15.36-7.42,1.4-.94,34.69-23.44,42.96-50.76l.06-.19-.09-.18c-4.46-8.8-19.79-38.21-30.1-47.03l-.49-.42-.29,.57c-20.51,41.32-32.48,49.03-52.3,61.81-6.37,4.11-13.58,8.76-22.1,15.22l-.47,.36,.43,.41c.11,.1,.48,.47,.95,.95,1.62,1.62,2.35,2.33,2.67,2.61l.19,.58Zm300.21-77.41c-4.81,6.08-19.41,30.2-22.65,37.41-2.18,4.86-.26,12.17,5.56,21.15,12.77,19.72,40.58,42.21,52.21,42.21h0c.97,0,1.83-.15,2.56-.46,4.24-1.13,37.47-21.39,39.96-23.89l4.32-4.34-23.13-11.57-4.3-4.07c-1.07-.75-2.01-1.39-2.95-2.03-1.11-.75-2.21-1.5-3.41-2.34-2.51-4.49-5.43-6.17-9.28-7.34-.43-1.23-.91-1.69-1.67-2.43-.35-.34-.75-.73-1.26-1.3-2.02-2.05-2.21-2.18-3.71-3l-.21-.12-28.26-42.66-3.79,4.78Zm-119.38,28.55c-11.16,3.77-17.15,6.38-21.53,8.28-8.95,3.89-11.35,4.94-43.51,8.31l-5.23,.55,.13,.55c3.04,12.95,16.75,36.79,25.16,45.81l.16,.17h.23c18.33-.59,26.75-3.99,37.42-8.3,3.78-1.52,7.68-3.1,12.42-4.71l.34-.12,.3-52.53-5.87,1.98Zm9.51,51l.37,.1c4.44,1.15,9.67,2.93,14.72,5,7.04,3.02,18.24,7.03,33.94,7.03,.94,0,1.89-.01,2.87-.04h.3l.13-.28c2.44-4.93,5.66-9.98,9.06-15.33,5.31-8.34,10.8-16.96,13.23-25.25l1.64-5.59h-.68c-.88,.03-1.76,.03-2.63,.03-25.2,0-42.88-6.31-53.27-11.61-5.29-2.44-9.84-4.53-14.98-5.47l-5.28-.97,.58,52.37Zm137.94-54.49c6.55,11.98,13.54,17.22,23.44,23.83,4.82,4.83,27.27,20.18,37.29,20.19h.18c1.89,0,4.05-.83,36.83-18.17,10.32-5.47,13.62-7.21,20.71-10.73l.71-.35-.63-.49c-62.89-48.85-72.36-60.9-106.72-109.83l-.49-.7-3.21,6.76c-8.33,17.54-15.33,27.72-19.96,34.46-8.95,13.02-11.13,17.52-2.27,34.08l.54,1.01c4.02,7.57,8.17,15.39,13.58,19.94ZM187.75,90.85c-4.05,4.59-7.01,9.64-10.44,15.5-6.11,10.42-13.69,23.37-31.51,40.12-18.65,17.75-31.35,25.36-41.55,31.47-5.68,3.4-10.57,6.33-14.97,10.18l-4.4,3.85,4.9,3.19c1.82,1.19,45.55,27.7,50.2,28.69,1,.21,2.06,.32,3.17,.32,24.29,0,78.39-53.11,80.39-78.93,.78-8.59-23.77-47.57-24.02-47.94-.91-1.29-1.07-1.48-1.55-2.02l-.51-.59c-1.04-1.55-1.53-2.09-2.14-2.77-.25-.27-.52-.57-.86-.98l-3.3-3.96-3.41,3.87Zm72.88,106.12h.28c2.01,.11,4.09,.16,6.19,.16,36.34,0,63.55-11.88,74.39-23.65l.13-.14,.57-55.26-.7,.29c-12.88,5.36-21.82,9.98-28.99,13.7-17.72,9.18-26.62,13.78-64.25,13.79-4.54,0-9.41-.06-14.89-.2l-.87-.02,28.14,51.34Zm85.13-21.61l.25,.14c19.35,11.08,41.47,21.32,72.14,21.33h0c3.26,0,6.64-.12,10.05-.34l.35-.02,.1-.34c2.23-7.73,6.99-15.43,11.59-22.88,4.31-6.98,8.77-14.19,11.3-21.6l2.15-6.07-.75,.04c-4.34,.22-8.64,.33-12.78,.33-21.73,0-52.41-3.23-75.15-18.65-4.82-2.92-8.96-5.43-13.57-6.8l-5.69-1.7v56.57Zm-.25-64.35l2,1.34c21.83,14.62,42.45,28.44,78.77,30.24,5.86,.29,10.24,.43,13.78,.43,16.99,0,20.19-3.23,25.66-13.22,1.98-3.54,4.2-7.27,6.55-11.21,7.04-11.79,15.01-25.16,17.83-36.46l.16-.62h-2.81c-46.52,0-77.92-4.34-120.46-28.12-7.4-4.29-13.74-7.29-20.54-9.73l-.67-.24-.27,67.58Zm-147.29-24.67c-.13,2.46,5.79,12.7,14.13,26.86,3.26,5.54,6.35,10.77,8.17,14.19,6.96,12.84,9.05,15.56,26.49,15.56,2.58,0,5.55-.05,9.17-.11,35.17-.73,51.19-10.44,71.47-22.72,4.4-2.66,8.94-5.42,13.97-8.26l.25-.14,.28-68.13-6.22,2.7c-7.56,3.33-13.91,6.66-20.05,9.89-11.34,5.96-22.06,11.59-38.39,16.06-21.28,6.04-36.52,6.78-54.17,7.63-7.93,.38-16.13,.78-25.42,1.71l-.54,.05,.86,4.72Z"/></svg>
